<?xml version="1.0" encoding="UTF-8"?>
<svg width="175px" height="40px" viewBox="0 0 175 40" version="1.1" xmlns="http://www.w3.org/2000/svg" xmlns:xlink="http://www.w3.org/1999/xlink">
    <!-- Generator: Sketch 50.2 (55047) - http://www.bohemiancoding.com/sketch -->
    <title>smg_medium_2014_rgb</title>
    <desc>Created with Sketch.</desc>
    <defs></defs>
    <g id="Symbols" stroke="none" stroke-width="1" fill="none" fill-rule="evenodd">
        <g id="/modules/desktop/menu" transform="translate(-165.000000, -20.000000)" fill-rule="nonzero">
            <g id="smg_medium_2014_rgb" transform="translate(165.000000, 20.000000)">
                <rect id="Rectangle-path" fill="#005496" x="0" y="0" width="39.2307692" height="39.2307692"></rect>
                <path d="M50.1538462,15.0769231 L52.9230769,14 C53.5384615,15.5384615 55.0769231,16.4615385 56.9230769,16.4615385 C58.6153846,16.4615385 60.1538462,15.8461538 60.1538462,14.3076923 C60.1538462,13.0769231 59.0769231,12.4615385 57.8461538,12.1538462 L55.0769231,11.5384615 C52.9230769,10.9230769 51.0769231,10 51.0769231,7.07692308 C51.0769231,4 53.8461538,2.15384615 57.0769231,2.15384615 C59.8461538,2.15384615 61.8461538,3.07692308 62.9230769,5.53846154 L60.3076923,6.61538462 C59.8461538,5.07692308 58.4615385,4.61538462 56.9230769,4.61538462 C55.5384615,4.61538462 54.3076923,5.23076923 54.3076923,6.76923077 C54.3076923,8 55.3846154,8.46153846 56.7692308,8.76923077 L59.6923077,9.53846154 C61.6923077,10 63.5384615,11.2307692 63.5384615,14.1538462 C63.5384615,17.2307692 60.7692308,19.2307692 57.0769231,19.2307692 C53.8461538,19.2307692 51.0769231,18 50.1538462,15.0769231" id="Shape" fill="#000000"></path>
                <path d="M65.2307692,13.5384615 L65.2307692,8.15384615 C65.2307692,4.15384615 68.3076923,2 71.8461538,2 C75.0769231,2 78.1538462,3.84615385 78.1538462,7.53846154 L78.1538462,8 L75.3846154,8 L75.3846154,7.84615385 C75.3846154,5.69230769 73.5384615,4.76923077 72,4.76923077 C70.4615385,4.76923077 68.4615385,5.53846154 68.4615385,8 L68.4615385,13.3846154 C68.4615385,15.3846154 70.1538462,16.6153846 72.1538462,16.6153846 C73.6923077,16.6153846 75.3846154,15.8461538 75.3846154,13.5384615 L75.3846154,13.2307692 L78.3076923,13.2307692 L78.3076923,13.6923077 C78.3076923,17.3846154 75.2307692,19.2307692 72,19.2307692 C68.4615385,19.2307692 65.2307692,17.2307692 65.2307692,13.5384615" id="Shape" fill="#000000"></path>
                <polygon id="Shape" fill="#000000" points="80.9230769 2.30769231 84 2.30769231 84 9.07692308 90.6153846 9.07692308 90.6153846 2.30769231 93.8461538 2.30769231 93.8461538 18.9230769 90.6153846 18.9230769 90.6153846 11.8461538 84 11.8461538 84 18.9230769 80.9230769 18.9230769"></polygon>
                <rect id="Rectangle-path" fill="#000000" x="97.5384615" y="2.30769231" width="3.07692308" height="16.7692308"></rect>
                <g id="Group" transform="translate(103.076923, 1.538462)" fill="#000000">
                    <path d="M8.15384615,14.7692308 C9.84615385,14.7692308 10.9230769,14 10.9230769,12.4615385 C10.9230769,10.9230769 10,10.3076923 8.15384615,10.3076923 L4.15384615,10.3076923 L4.15384615,14.9230769 L8.15384615,14.9230769 L8.15384615,14.7692308 Z M8,7.53846154 C9.53846154,7.53846154 10.4615385,6.76923077 10.4615385,5.38461538 C10.4615385,4 9.38461538,3.38461538 7.84615385,3.38461538 L4.30769231,3.38461538 L4.30769231,7.53846154 L8,7.53846154 Z M1.23076923,0.769230769 L8.46153846,0.769230769 C11.6923077,0.769230769 13.6923077,2.15384615 13.6923077,5.07692308 C13.6923077,6.61538462 13.0769231,7.84615385 11.3846154,8.61538462 C13.2307692,9.07692308 14.3076923,10.7692308 14.3076923,12.6153846 C14.3076923,15.6923077 11.8461538,17.3846154 9.07692308,17.3846154 L1.53846154,17.3846154 L1.53846154,0.769230769 L1.23076923,0.769230769 Z" id="Shape"></path>
                    <path d="M15.2307692,13.5384615 L18,12.4615385 C18.6153846,14 20.1538462,14.9230769 22,14.9230769 C23.6923077,14.9230769 25.2307692,14.3076923 25.2307692,12.7692308 C25.2307692,11.5384615 24.1538462,10.9230769 22.9230769,10.6153846 L20.1538462,10 C18,9.38461538 16.1538462,8.46153846 16.1538462,5.53846154 C16.1538462,2.46153846 18.9230769,0.615384615 22.1538462,0.615384615 C24.9230769,0.615384615 26.9230769,1.53846154 28,4 L25.3846154,5.07692308 C24.7692308,3.53846154 23.5384615,3.07692308 22,3.07692308 C20.6153846,3.07692308 19.3846154,3.69230769 19.3846154,5.23076923 C19.3846154,6.46153846 20.4615385,6.92307692 21.8461538,7.23076923 L24.6153846,8 C26.6153846,8.46153846 28.4615385,9.69230769 28.4615385,12.6153846 C28.4615385,15.6923077 25.6923077,17.6923077 22,17.6923077 C18.9230769,17.6923077 16.1538462,16.4615385 15.2307692,13.5384615" id="Shape"></path>
                </g>
                <polygon id="Shape" fill="#000000" points="137.384615 4.92307692 132.615385 4.92307692 132.615385 2.30769231 145.384615 2.30769231 145.384615 4.92307692 140.461538 4.92307692 140.461538 18.9230769 137.384615 18.9230769"></polygon>
                <polygon id="Shape" fill="#000000" points="147.230769 2.30769231 158.769231 2.30769231 158.769231 5.07692308 150.307692 5.07692308 150.307692 9.07692308 157.846154 9.07692308 157.846154 11.8461538 150.307692 11.8461538 150.307692 16.3076923 158.923077 16.3076923 158.923077 18.9230769 147.230769 18.9230769"></polygon>
                <g id="Group" transform="translate(6.153846, 1.538462)">
                    <path d="M161.538462,14.7692308 C163.076923,14.7692308 165.076923,14 165.076923,11.5384615 L165.076923,6.61538462 C165.076923,4.61538462 163.384615,3.38461538 161.384615,3.38461538 L158.153846,3.38461538 L158.153846,14.6153846 L161.538462,14.6153846 L161.538462,14.7692308 Z M155.230769,0.769230769 L161.692308,0.769230769 C165.384615,0.769230769 168.307692,3.07692308 168.307692,6.92307692 L168.307692,11.3846154 C168.307692,15.3846154 165.076923,17.5384615 161.692308,17.5384615 L155.076923,17.5384615 L155.076923,0.769230769 L155.230769,0.769230769 Z" id="Shape" fill="#000000"></path>
                    <path d="M10.7692308,32.7692308 C4.61538462,32.7692308 2.61538462,28.4615385 2.61538462,25.6923077 C2.61538462,22.9230769 4.15384615,21.3846154 6.15384615,21.3846154 C8.15384615,21.3846154 10,22.6153846 10,25.6923077 L18.7692308,25.6923077 C18.3076923,30.3076923 14.7692308,32.7692308 10.7692308,32.7692308 Z M28.3076923,24 C28.4615385,23.3846154 28.4615385,22.7692308 28.4615385,22.1538462 C28.4615385,19.2307692 27.0769231,15.2307692 25.5384615,12 L24.3076923,9.38461538 C23.3846154,7.53846154 22.6153846,6.15384615 22.6153846,4.61538462 C22.6153846,3.53846154 23.2307692,2.76923077 24.3076923,2.76923077 C25.6923077,2.76923077 26.1538462,3.69230769 26.1538462,5.84615385 L28.3076923,5.84615385 L28.3076923,2 C26.9230769,1.53846154 25.6923077,1.23076923 23.5384615,1.23076923 C18.4615385,1.23076923 14,3.38461538 14,9.07692308 C14,14 18.4615385,18.6153846 18.9230769,24 L16,24 C15.3846154,17.8461538 10.1538462,17.2307692 8.61538462,17.2307692 C3.84615385,17.2307692 0.461538462,20.4615385 0.461538462,25.0769231 C0.461538462,30.6153846 4,34.9230769 11.8461538,34.9230769 C19.2307692,34.9230769 25.8461538,31.3846154 28,25.8461538 L33.2307692,25.8461538 L33.2307692,24 L28.3076923,24 Z" id="Shape" fill="#FFFFFF"></path>
                </g>
                <g id="Group" transform="translate(50.769231, 24.615385)" fill="#000000">
                    <polygon id="Shape" points="5.23076923 7.53846154 1.23076923 0.923076923 0.461538462 0.923076923 0.461538462 12.3076923 1.07692308 12.3076923 1.07692308 2.15384615 4.92307692 8.46153846 4.92307692 8.61538462 5.53846154 8.61538462 9.38461538 2.30769231 9.38461538 12.3076923 10.1538462 12.3076923 10.1538462 0.923076923 9.23076923 0.923076923"></polygon>
                    <polygon id="Shape" points="12 12.3076923 18.9230769 12.3076923 18.9230769 11.6923077 12.7692308 11.6923077 12.7692308 6.76923077 17.6923077 6.76923077 17.6923077 6 12.7692308 6 12.7692308 1.69230769 18.9230769 1.69230769 18.9230769 0.923076923 12 0.923076923"></polygon>
                    <path d="M25.0769231,0.923076923 L20.9230769,0.923076923 L20.9230769,12.3076923 L25.0769231,12.3076923 C27.3846154,12.3076923 28.9230769,10.9230769 28.9230769,8.61538462 L28.9230769,4.46153846 C28.7692308,2.30769231 27.3846154,0.923076923 25.0769231,0.923076923 Z M21.6923077,1.69230769 L24.9230769,1.69230769 C26.9230769,1.69230769 28,2.76923077 28,4.76923077 L28,8.92307692 C28,10.3076923 27.2307692,11.8461538 24.9230769,11.8461538 L21.6923077,11.8461538 L21.6923077,1.69230769 Z" id="Shape"></path>
                    <rect id="Rectangle-path" x="30.7692308" y="0.923076923" width="1" height="11.3846154"></rect>
                    <path d="M37.8461538,0.923076923 L37.2307692,0.923076923 L33.0769231,12.3076923 L33.0769231,12.4615385 L33.8461538,12.4615385 L35.3846154,8.46153846 L40,8.46153846 L41.5384615,12.4615385 L42.3076923,12.4615385 L37.8461538,0.923076923 Z M39.5384615,7.69230769 L35.3846154,7.69230769 L37.5384615,2 L39.5384615,7.69230769 Z" id="Shape"></path>
                    <path d="M50.6153846,7.23076923 L53.8461538,7.23076923 L53.8461538,9.23076923 C53.8461538,10.7692308 52.6153846,11.8461538 50.6153846,11.8461538 C48.4615385,11.8461538 47.2307692,10.6153846 47.2307692,8.61538462 L47.2307692,4.61538462 C47.2307692,2.61538462 48.6153846,1.38461538 50.6153846,1.38461538 C52.6153846,1.38461538 53.8461538,2.30769231 53.8461538,4 L53.8461538,4.76923077 L54.6153846,4.76923077 L54.6153846,3.84615385 C54.6153846,2 52.9230769,0.615384615 50.7692308,0.615384615 C48.3076923,0.615384615 46.6153846,2.30769231 46.6153846,4.61538462 L46.6153846,8.76923077 C46.6153846,11.0769231 48.1538462,12.4615385 50.7692308,12.4615385 C53.2307692,12.4615385 54.7692308,11.2307692 54.7692308,9.23076923 L54.7692308,6.30769231 L50.7692308,6.30769231 L50.7692308,7.23076923 L50.6153846,7.23076923 Z" id="Shape"></path>
                    <path d="M64,4.15384615 C64,2.15384615 62.6153846,0.923076923 60.3076923,0.923076923 L56.6153846,0.923076923 L56.6153846,12.3076923 L57.3846154,12.3076923 L57.3846154,7.53846154 L60,7.53846154 L63.6923077,12.3076923 L64.6153846,12.3076923 L60.9230769,7.53846154 C62.7692308,7.38461538 64,6.15384615 64,4.15384615 Z M57.3846154,1.53846154 L60,1.53846154 C62,1.53846154 63.2307692,2.46153846 63.2307692,4.15384615 C63.2307692,6 62.1538462,6.76923077 60,6.76923077 L57.3846154,6.76923077 L57.3846154,1.53846154 Z" id="Shape"></path>
                    <path d="M69.6923077,0.615384615 C67.2307692,0.615384615 65.5384615,2.30769231 65.5384615,4.76923077 L65.5384615,8.76923077 C65.5384615,11.0769231 67.2307692,12.4615385 69.6923077,12.4615385 C72.1538462,12.4615385 73.8461538,10.7692308 73.8461538,8.30769231 L73.8461538,4.30769231 C73.8461538,2.15384615 72.3076923,0.615384615 69.6923077,0.615384615 Z M69.6923077,11.8461538 C67.5384615,11.8461538 66.3076923,10.6153846 66.3076923,8.61538462 L66.3076923,4.76923077 C66.3076923,2.76923077 67.6923077,1.38461538 69.6923077,1.38461538 C71.8461538,1.38461538 73.2307692,2.46153846 73.2307692,4.46153846 L73.2307692,8.61538462 C73.0769231,10.6153846 71.8461538,11.8461538 69.6923077,11.8461538 Z" id="Shape"></path>
                    <path d="M83.0769231,8.76923077 C83.0769231,9.69230769 82.7692308,10.4615385 82.3076923,11.0769231 C81.6923077,11.6923077 80.9230769,12 79.8461538,12 C78.9230769,12 76.4615385,11.6923077 76.4615385,8.76923077 L76.4615385,1.07692308 L75.6923077,1.07692308 L75.6923077,8.92307692 C75.6923077,11.6923077 77.8461538,12.7692308 79.6923077,12.7692308 C80.9230769,12.7692308 82,12.3076923 82.7692308,11.6923077 C83.3846154,11.0769231 83.6923077,10.1538462 83.6923077,9.07692308 L83.6923077,1.23076923 L83.0769231,1.23076923 L83.0769231,8.76923077 Z" id="Shape"></path>
                    <path d="M89.2307692,0.923076923 L85.5384615,0.923076923 L85.5384615,12.3076923 L86.3076923,12.3076923 L86.3076923,7.69230769 L88.7692308,7.69230769 C91.2307692,7.69230769 92.7692308,6.30769231 92.7692308,4.30769231 C92.7692308,2.30769231 91.3846154,0.923076923 89.2307692,0.923076923 Z M86.3076923,1.53846154 L89.2307692,1.53846154 C90.9230769,1.53846154 92,2.61538462 92,4.15384615 C92,6.46153846 90.1538462,6.92307692 88.6153846,6.92307692 L86.3076923,6.92307692 L86.3076923,1.53846154 Z" id="Shape"></path>
                </g>
            </g>
        </g>
    </g>
</svg>